<?xml version="1.0" encoding="utf-8"?>
<!-- Generator: Adobe Illustrator 23.0.3, SVG Export Plug-In . SVG Version: 6.00 Build 0)  -->
<svg version="1.1" xmlns="http://www.w3.org/2000/svg" xmlns:xlink="http://www.w3.org/1999/xlink" x="0px" y="0px"
	 viewBox="0 0 500 500" style="enable-background:new 0 0 500 500;" xml:space="preserve">
<g id="Layer_1">
	<g>
		<path fill="#321b00" d="M383,107v73.89h-7.85c-4.65-17.04-9.81-29.29-15.47-36.74c-5.67-7.45-13.44-13.39-23.32-17.82
			c-5.52-2.42-15.19-3.62-28.99-3.62h-22.01v210.59c0,13.96,0.84,22.68,2.51,26.17c1.67,3.49,4.94,6.54,9.81,9.16
			c4.87,2.62,11.51,3.93,19.94,3.93h9.81V380H172.68v-7.45h9.81c8.57,0,15.47-1.41,20.71-4.23c3.78-1.88,6.76-5.1,8.94-9.66
			c1.6-3.22,2.4-11.68,2.4-25.37V122.7h-21.36c-19.91,0-34.36,3.89-43.37,11.68c-12.64,10.87-20.63,26.37-23.97,46.51h-8.28V107H383
			z"/>
	</g>
</g>
<g id="Layer_2">
	<ellipse fill="#321b00" cx="366.67" cy="348.5" rx="31.33" ry="31.5"/>
</g>
</svg>
