<?xml version="1.0" encoding="utf-8"?>
<!-- Generator: Adobe Illustrator 23.0.3, SVG Export Plug-In . SVG Version: 6.00 Build 0)  -->
<svg version="1.1" xmlns="http://www.w3.org/2000/svg" xmlns:xlink="http://www.w3.org/1999/xlink" x="0px" y="0px"
	 viewBox="0 0 500 500" style="enable-background:new 0 0 500 500;" xml:space="preserve">
<g id="Layer_1">
	<g>
		<path fill="#321b00" d="M393.14,106.95l3.86,68.6h-9.78c-1.89-12.08-4.46-20.71-7.72-25.89c-5.32-8.34-12.4-14.49-21.23-18.44
			c-8.84-3.95-20.46-5.93-34.87-5.93h-49.15v223.48c0,17.98,2.32,29.2,6.95,33.65c6.52,6.04,16.55,9.06,30.11,9.06h12.09v7.98
			H175.45v-7.98h12.35c14.75,0,25.22-3.74,31.39-11.22c3.77-4.6,5.66-15.1,5.66-31.49V125.28h-41.94c-16.3,0-27.88,1.01-34.74,3.02
			c-8.92,2.73-16.56,7.98-22.9,15.75c-6.35,7.77-10.12,18.27-11.32,31.49h-9.78l4.12-68.6H393.14z"/>
	</g>
</g>
<g id="Layer_2">
	<ellipse cx="373.17" cy="377" rx="23.83" ry="24" fill="#321b00"/>
</g>
</svg>
